<svg width="55" height="34" viewBox="0 0 55 34" fill="none" xmlns="http://www.w3.org/2000/svg">
    <path d="M36.9975 9H31.9424L27.2129 14.885L25.3393 17.2167H25.3385L19.0833 25H24.1391L28.0404 20.1452L31.9424 25H36.9975L30.568 17L36.9975 9Z" fill="#111314"/>
    <path d="M27.2129 14.8849L25.3386 17.2166H25.3393L27.2129 14.8849Z" fill="#111314"/>
    <path opacity="0.3" d="M27.2129 14.8849L25.3386 17.2166H25.3393L27.2129 14.8849Z" fill="#111314"/>
    <path d="M50.4405 15.96V24.9999H55.0001V24.9992V10.2853L50.4405 15.96Z" fill="#111314"/>
    <path d="M54.812 9.1129L54.8177 9.11781L54.9118 9.0021V9H49.8798L45.9547 13.8822L42.023 9H36.9976V9.0021V24.9993V25H41.5571V14.6522L45.9612 20.1024L51.9393 12.6879L54.812 9.1129Z" fill="#111314"/>
    <path d="M51.9392 12.6879L54.8176 9.11776L54.8118 9.11285L51.9392 12.6879Z" fill="#111314"/>
    <path opacity="0.3" d="M51.9392 12.6879L54.8176 9.11776L54.8118 9.11285L51.9392 12.6879Z" fill="#111314"/>
    <path d="M27.4103 13.0708L24.1391 9H19.0833L24.8821 16.2153L24.9399 16.2868L27.4675 13.1424L27.4103 13.0708Z" fill="#111314"/>
    <path d="M15.6645 9.00073H0V17.9986C0.695185 16.3815 2.17092 15.2272 3.23214 14.7714C3.58878 15.5737 4.35341 16.1164 5.28949 16.1192C5.76548 16.1206 6.20458 15.9755 6.57062 15.7343C6.62488 15.6929 6.68347 15.6466 6.71096 15.6178C6.65815 15.6312 6.59811 15.6536 6.55254 15.6599C6.39556 15.6971 6.22773 15.7202 6.05701 15.7209C4.89162 15.723 3.95337 14.8093 3.95626 13.688C3.95843 12.8002 4.51039 12.0702 5.33868 11.7756C5.42187 11.7462 5.49348 11.7286 5.57089 11.7097C5.65914 11.688 5.75825 11.6704 5.85084 11.6613C6.96487 11.554 7.29692 11.7784 9.77311 11.6312C12.3224 11.4797 13.1637 11.0561 14.46 10.5281C13.7171 11.7055 13.2165 12.378 11.8218 12.9874C11.0202 13.3373 7.52406 13.7567 7.51393 13.7574C7.51393 13.7574 11.3465 14.1796 11.4348 14.1894C11.6214 14.4229 16.1108 20.0049 16.1108 20.0049C16.1108 20.0049 15.5986 20.6515 14.8796 21.5449C14.2683 22.3044 13.6823 23.0463 13.236 23.4117C13.1022 23.5211 12.9647 23.5863 12.8606 23.6235C12.1119 23.8899 11.2062 23.2981 10.7663 22.9888C10.4632 22.7756 10.163 22.5744 9.80928 22.4481C9.55609 22.3577 9.27758 22.3086 9.00124 22.2953C8.05865 22.1922 7.15224 22.6501 6.68998 23.4257C6.62126 23.5414 6.51203 23.7686 6.47441 23.9075C6.65454 23.6746 6.90483 23.4699 7.12909 23.338C7.82355 22.9299 8.64243 22.9467 8.9043 23.1578C9.08443 23.7609 9.58502 24.4958 10.2455 24.9993H15.6637L22.0933 17L15.6645 9.00073ZM14.4542 15.4615C14.3037 15.5274 14.0585 15.5954 13.7598 15.662L12.501 14.0989C14.9751 13.9418 15.8128 13.5232 17.0924 13.0014C16.3502 14.1789 15.8489 14.8521 14.4549 15.4608L14.4542 15.4615Z" fill="#FF0000"/>
    <path d="M11.0015 18.2405L11.131 18.2174L11.0608 18.1136C10.9661 17.9769 10.872 17.8513 10.778 17.7342C10.7281 17.6711 10.6803 17.615 10.6311 17.5575C10.6058 17.5281 10.5805 17.4986 10.5559 17.4706C9.87592 16.709 9.28852 16.4348 9.25741 16.4215L9.17567 16.3843L9.15252 16.3738L9.13516 16.4853C9.02737 17.1382 9.13299 17.5926 9.45418 17.9067C9.74932 18.1893 10.1725 18.2665 10.5009 18.2763C10.7765 18.2847 10.9834 18.2469 11.0015 18.2405Z" fill="#FF0000"/>
</svg>
